<svg width="240" height="201" viewBox="0 0 240 201" fill="none" xmlns="http://www.w3.org/2000/svg">
<path d="M3 0L18 7.37864L32.25 0C32.25 0 40.6126 7.51089 47.25 7.37864C53.6305 7.25151 61.5 0 61.5 0C61.5 0 69.8626 7.51089 76.5 7.37864C82.8805 7.25151 90.75 0 90.75 0C90.75 0 99.1126 7.51089 105.75 7.37864C112.13 7.25151 120 0 120 0C120 0 128.363 7.51089 135 7.37864C141.38 7.25151 149.25 0 149.25 0C149.25 0 157.613 7.51089 164.25 7.37864C170.63 7.25151 178.5 0 178.5 0C178.5 0 180.5 7.37864 193.5 7.37864C206.5 7.37864 207.75 0 207.75 0C207.75 0 216.113 7.51089 222.75 7.37864C229.13 7.25151 237 0 237 0V190H3V0Z" fill="#D9D9D9"/>
<path d="M68.6892 94.9908C66.2428 90.6603 68.299 85.1707 72.9884 83.5131L191.912 41.4767C195.662 40.1512 199.816 41.7817 201.663 45.304L232.861 104.797C235.071 109.012 233.135 114.212 228.707 115.956L113.974 161.141C110.262 162.603 106.04 161.106 104.077 157.632L68.6892 94.9908Z" fill="#7074FF"/>
<path d="M72.9021 99.1817C70.8303 94.8377 73.0354 89.6609 77.6033 88.1451L173.82 56.2167C177.639 54.9492 181.806 56.7163 183.55 60.3432L201.726 98.1503C203.757 102.374 201.739 107.43 197.359 109.095L123 137.36C121.075 138.092 118.941 138.053 117.044 137.251L87.299 124.683C85.4959 123.921 84.0346 122.524 83.1919 120.757L72.9021 99.1817Z" fill="#D9D9D9" fill-opacity="0.5"/>
<path d="M92.4693 99.2379C91.6578 97.1936 92.6572 94.8785 94.7015 94.067L123.92 82.4693C125.964 81.6578 128.279 82.6573 129.09 84.7016V84.7016C129.902 86.7459 128.902 89.0609 126.858 89.8724L97.6401 101.47C95.5958 102.282 93.2807 101.282 92.4693 99.2379V99.2379Z" fill="#D9D9D9" fill-opacity="0.5"/>
<path d="M107.469 118.631C106.658 116.587 107.657 114.272 109.702 113.461L149.988 97.4693C152.032 96.6578 154.347 97.6573 155.159 99.7016V99.7016C155.97 101.746 154.971 104.061 152.927 104.872L112.64 120.864C110.596 121.675 108.281 120.676 107.469 118.631V118.631Z" fill="#D9D9D9" fill-opacity="0.5"/>
<path d="M0 89.8C0 83.888 6.19148 80.0183 11.5056 82.609L116.494 133.791C118.707 134.87 121.293 134.87 123.506 133.791L228.494 82.609C233.809 80.0183 240 83.888 240 89.8V193C240 197.418 236.418 201 232 201H8.00001C3.58173 201 0 197.418 0 193V89.8Z" fill="#4F59FF"/>
</svg>
